<svg width="1030" height="314" viewBox="0 0 1030 314" fill="none" xmlns="http://www.w3.org/2000/svg">
<path d="M342.28 145.581C347.3 135.651 349.72 125.781 349.6 116.301H308.99C307.77 116.301 306.78 115.301 306.78 114.091V108.071C306.78 89.071 315.75 80.121 332.22 80.121C333.16 80.121 334.07 80.141 334.99 80.201C331.74 76.511 327.95 72.981 323.63 69.671C321.26 67.881 320.32 64.771 321.28 61.981C322.22 59.1708 324.85 57.3008 327.82 57.3008C338.27 57.5808 350.37 62.061 361.25 69.121L368.87 48.1308C369.23 47.1508 368.89 46.0408 367.99 45.4808C357.56 39.0008 341.88 36.0708 326.86 36.0708C278.86 36.0708 252.34 64.361 252.34 107.721V114.101C252.34 115.321 251.34 116.311 250.13 116.311H228.58C249.01 128.991 264.64 149.581 273.17 176.391C274.19 179.561 275.06 183.511 275.9 187.331L276.02 187.811C277.16 192.991 274.21 198.121 269.14 199.731L252.34 205.091L246.36 206.981V223.331L252.34 226.721L274.53 239.361C279.23 242.031 281.05 247.871 278.68 252.681C272.56 265.121 263.75 275.821 252.35 284.741V302.501C252.35 303.721 253.35 304.711 254.56 304.711H306.01C307.23 304.711 308.22 303.711 308.22 302.501V161.501C308.22 160.281 309.22 159.291 310.43 159.291H336.25C338.24 154.271 340.34 149.461 342.29 145.591L342.28 145.581Z" fill="#C471FF"/>
<path d="M273.31 250.021C274.29 248.051 273.49 245.651 271.58 244.561L252.34 233.621L246.36 230.211L240.48 226.861C238.53 225.761 236.01 226.341 234.84 228.241C226.21 242.271 214.45 251.501 196.43 257.251C170.69 265.441 148.41 259.521 135.33 241.981C133.62 239.671 134.73 236.321 137.48 235.441L246.36 200.711L252.34 198.821L267.33 194.041C269.42 193.381 270.64 191.251 270.18 189.121C269.34 185.351 268.45 181.251 267.49 178.221C258.78 150.891 242.71 131.311 222.62 119.871C220.71 118.771 218.77 117.761 216.8 116.841C194.59 106.251 168.18 104.981 141.59 113.451C135.99 115.221 130.67 117.361 125.62 119.831V157.391C125.62 162.391 121.55 166.461 116.55 166.461C116.31 166.461 116.07 166.461 115.83 166.441C112.84 166.201 110.13 166.001 107.1 166.001C92.27 166.001 80.93 170.151 73.33 178.241C67.23 197.001 66.99 217.951 73.77 239.221C91.17 293.821 145.2 320.571 208.67 300.361C223.4 295.681 235.98 289.441 246.37 281.741C248.46 280.201 250.46 278.611 252.35 276.981C261.32 269.211 268.32 260.191 273.32 250.051L273.31 250.021ZM120.98 200.901C119.72 178.631 132.3 160.751 154.75 153.601C176.84 146.561 197.49 154.141 209.29 172.741C210.77 175.091 209.63 178.221 207 179.061L126.5 204.721C123.87 205.561 121.12 203.661 120.98 200.911V200.901Z" fill="#FCCA1B"/>
<path d="M672.76 227.211L646.03 195.691C644.71 194.141 644.75 191.841 646.13 190.351L672.76 161.191L678.74 154.651L714.44 115.561C716.45 113.331 715.4 110.001 712.9 109.061H704.19L680.31 109.941L673.21 110.201L655.95 110.821C654.91 110.861 653.94 111.281 653.22 112.021L582.13 184.481C579.64 187.011 575.33 185.341 575.21 181.791L570.21 44.8607C570.13 42.6507 568.26 40.8908 566.02 40.9708L518.26 42.7208C516.03 42.8008 514.29 44.6708 514.37 46.9108L516.54 106.671C518.35 104.321 520.43 102.081 522.82 100.071C524.06 99.011 525.63 98.441 527.25 98.441C529.36 98.441 531.4 99.441 532.69 101.091C534.03 102.781 534.48 104.961 533.97 107.051C526.1 138.731 532.08 163.291 538.42 189.281L539.78 194.861C546.3 222.011 541.91 249.121 527.38 271.171C525.94 273.341 524.41 275.481 522.8 277.531L523.78 304.441C523.86 306.651 525.73 308.411 527.97 308.331L575.75 306.581C577.96 306.501 579.72 304.631 579.64 302.391L578.05 259.071C578.01 257.991 578.41 256.941 579.15 256.161L600.82 233.181C602.45 231.451 605.25 231.491 606.8 233.301L666.23 301.781C667.03 302.701 668.2 303.221 669.42 303.181L673.09 303.041C672.89 302.281 672.79 301.471 672.79 300.631V227.231L672.76 227.211Z" fill="#0177E5"/>
<path d="M707.1 81.7911C728.19 81.7911 742.36 67.9611 742.36 49.0609C742.36 31.6009 728.19 18.5009 707.1 18.5009C686.01 18.5009 671.82 32.3309 671.82 50.1609C671.82 67.9911 686.01 81.8011 707.1 81.8011V81.7911Z" fill="#FCCA1B"/>
<path d="M706.17 257.381C706.17 257.381 706.15 257.361 706.15 257.341C703.18 251.201 700.69 244.601 698.67 237.641C685.15 190.631 700.07 147.561 735.47 123.311V113.141C735.47 110.891 733.64 109.051 731.36 109.051H720.71C722.21 112.661 721.49 116.691 718.84 119.581L678.73 163.501V300.591C678.73 301.411 678.97 302.161 679.37 302.801C680.11 303.941 681.38 304.691 682.82 304.691H731.36C732.64 304.691 733.77 304.111 734.53 303.191C734.61 303.091 734.69 302.991 734.77 302.871C735.21 302.211 735.47 301.431 735.47 300.581V294.621C723.41 285.091 713.42 272.511 706.17 257.361V257.381Z" fill="#FCCA1B"/>
<path d="M851.13 281.041L866.36 248.251C867.99 244.721 871.56 242.431 875.43 242.431C877.16 242.431 878.88 242.891 880.37 243.771C894.05 251.621 912.03 257.071 929.37 258.761L922.09 233.481C889.86 228.041 853.71 216.931 853.71 171.461C853.71 147.301 866.37 128.101 888.38 116.301L860.41 19.0208C859.79 16.8908 857.54 15.6508 855.41 16.2708L809.46 29.4908C807.33 30.1108 806.09 32.3408 806.71 34.4708L828.8 111.261C829.74 114.551 826.41 117.461 823.3 116.041C807.29 108.841 788.93 108.451 769.58 114.011C759.25 116.981 749.82 121.271 741.45 126.671C739.4 128.011 737.4 129.401 735.47 130.861C705.51 153.611 691.79 192.121 704.41 236.001C710.61 257.571 721.53 274.671 735.47 286.831C737.4 288.561 739.4 290.161 741.45 291.631C764.43 308.531 794.2 313.401 824.44 304.711C835.24 301.601 844.63 297.271 852.51 291.711C850.08 288.821 849.44 284.691 851.13 281.041ZM821.07 257.971C794.22 265.681 768 252.351 758.79 220.351C749.58 188.331 764.69 163.121 791.54 155.381C818.05 147.771 844.25 161.101 853.46 193.121C862.67 225.121 847.56 250.351 821.07 257.971Z" fill="#C471FF"/>
<path d="M913.09 169.301C913.09 159.271 923.83 151.401 948.89 151.401C965.3 151.401 982.94 154.511 1000.66 163.681C1002.71 164.761 1005.24 163.961 1006.22 161.871L1021.43 129.401C1022.35 127.471 1021.63 125.131 1019.74 124.141C1001.36 114.531 973.87 109.131 948.89 109.131C927.58 109.131 909.62 112.841 895.52 119.421C893.65 120.301 891.83 121.231 890.1 122.211C870.42 133.251 859.7 150.621 859.7 171.471C859.7 211.021 890.4 221.751 920.26 227.111C922.45 227.511 924.65 227.871 926.8 228.211C952.66 232.321 976.12 233.611 976.12 247.771C976.12 258.521 966.45 265.331 940.66 265.331C939.6 265.331 938.55 265.311 937.47 265.271C935.38 265.231 933.26 265.111 931.13 264.931C911.91 263.391 892.06 257.391 877.39 248.961C875.36 247.781 872.77 248.661 871.79 250.771L856.56 283.561C855.84 285.101 856.16 286.891 857.3 288.051C857.52 288.291 857.8 288.511 858.1 288.691C859.58 289.571 861.13 290.401 862.76 291.241C881.52 300.811 910.14 307.591 938.51 307.591C996.18 307.591 1029.49 282.151 1029.49 246.331C1029.49 170.401 913.09 202.271 913.09 169.321V169.301Z" fill="#F4292C"/>
<path d="M77.77 167.031C85.8 162.291 95.75 159.991 107.09 159.991C110.32 159.991 113.13 160.191 116.3 160.451C118.09 160.591 119.63 159.151 119.63 157.361V112.291C119.63 110.561 118.19 109.121 116.46 109.161C88.27 109.841 66.48 119.471 53.37 137.431V115.081C53.37 113.391 51.99 111.991 50.28 111.991H3.09C1.38 111.991 0 113.391 0 115.081V301.611C0 303.321 1.38 304.701 3.09 304.701H52.79C54.5 304.701 55.88 303.321 55.88 301.611V213.721C55.88 196.541 60.31 183.741 68.12 174.931C70.93 171.781 74.14 169.151 77.77 167.041V167.031Z" fill="#0177E5"/>
<path d="M533.95 196.261C527.29 168.531 519.34 141.101 528.17 105.601C528.37 104.741 527.37 104.051 526.69 104.621C522.48 108.211 519.33 112.531 516.92 117.061V117.081C514.35 121.881 512.65 126.871 511.46 131.411V131.431C510.6 134.761 510 137.831 509.55 140.401C509.37 141.341 508.03 141.421 507.74 140.501C493.03 95.911 491.83 54.1408 521.14 15.3308C521.74 14.5308 520.84 13.4608 519.96 13.9508C492.87 29.2208 472.48 50.9308 459.32 79.221C445.74 108.421 442.32 137.651 458.12 168.071C465.32 181.901 469.06 197.951 472.13 213.441C476.44 235.171 462.52 252.851 440.17 256.761C417.42 260.731 395.84 246.511 391.99 225.521C387.54 201.361 391.59 177.361 402.73 155.451C403.19 154.571 402.19 153.721 401.37 154.271C393 160.131 387.73 169.601 384.98 175.861C384.56 176.841 383.09 176.501 383.21 175.441C385.12 157.121 389.05 134.611 386.76 112.771C385.46 100.471 376.09 87.951 364.15 78.581C362.52 77.281 360.84 76.071 359.13 74.911C348.9 68.011 337.46 63.531 327.81 63.271C326.91 63.231 326.51 64.371 327.23 64.921C334.03 70.121 339.59 75.781 343.92 81.761C345.99 84.591 347.77 87.501 349.28 90.491C352.53 96.871 354.54 103.551 355.28 110.401C355.54 112.591 355.64 114.811 355.64 117.041C355.6 127.271 352.89 137.791 347.59 148.261C346.04 151.351 344.34 155.161 342.67 159.261C341.87 161.211 341.1 163.231 340.32 165.241C337.73 172.101 335.38 179.131 333.86 184.521C326.92 209.201 324.05 233.841 336.89 258.541C357.26 297.651 403.83 319.741 452.41 311.391C479.06 306.811 501.65 293.891 516.72 275.551C518.75 273.061 520.67 270.491 522.42 267.801C535.44 248.021 540.42 223.191 533.94 196.251L533.95 196.261Z" fill="#F4292C"/>
<path d="M425.05 95.011C422.98 78.301 424.89 64.671 432.63 53.4108C447.24 32.1608 453.12 22.1308 456.13 1.08079C456.27 0.10079 455.01 -0.41921 454.46 0.42079C448.38 9.67079 438.51 20.6308 429.52 29.6008C412.14 46.9408 407.53 72.421 423.4 95.681C423.94 96.481 425.17 95.961 425.05 95.001V95.011Z" fill="#F4292C"/>
</svg>
